<?xml version="1.0" encoding="UTF-8" standalone="no"?>
<!-- Created with Inkscape (http://www.inkscape.org/) -->

<svg
   width="24"
   height="24"
   viewBox="0 0 24 24"
   version="1.1"
   id="svg1"
   xml:space="preserve"
   xmlns="http://www.w3.org/2000/svg"
   xmlns:svg="http://www.w3.org/2000/svg"><defs
     id="defs1" /><path
     id="path1"
     style="fill:#000000;stroke-width:0.999998"
     d="m 12.013672,3.8880952 c -2.7295196,2.566e-4 -4.9417974,0.9253909 -4.9414064,2.0664063 0.00219,1.1402526 2.2137107,2.0641971 4.9414064,2.0644531 2.728458,1.945e-4 4.94117,-0.9238818 4.943359,-2.0644531 3.91e-4,-1.1413341 -2.213077,-2.0666005 -4.943359,-2.0664063 z m 4.99414,3.9497954 c -0.687971,1.1163937 -2.452653,1.8790935 -4.988281,1.8789063 -2.0264399,0 -4.0006856,-0.532633 -4.9417986,-1.651731 l -0.00552,2.4918181 c 1.0219274,1.230616 3.3246026,1.577764 4.8160476,1.621217 2.389296,0.08953 4.301216,-0.661417 5.111722,-1.754146 z M 7.0390625,11.90625 v 4.667968 0.01367 c -1.44e-5,0.0033 -1.44e-5,0.0066 0,0.0098 5.081e-4,0.0033 0.00141,0.0066 0.00195,0.0098 v 0.002 0.002 c 0.016756,1.282281 2.2427471,2.31778 4.9843755,2.31836 2.754377,2.02e-4 4.98781,-1.043763 4.988281,-2.332032 -1.16e-4,-0.03789 -0.0018,-0.07543 -0.0059,-0.113281 l 2.2e-5,-4.577441 C 15.80349,13.20461 14.021293,13.563239 11.855112,13.492208 9.9855115,13.430902 7.9046444,13.044053 7.0390625,11.90625 Z" /></svg>
