<svg xmlns="http://www.w3.org/2000/svg" viewBox="0 0 24 24" width="24" height="24" fill="currentColor">
  <path d="m12.014 3.8881c-2.7295 2.566e-4 -4.9418 0.92539-4.9414 2.0664 0.00219 1.1403 2.2137 2.0642 4.9414 2.0645 2.7285 1.945e-4 4.9412-0.92388 4.9434-2.0645 3.91e-4 -1.1413-2.2131-2.0666-4.9434-2.0664zm4.9941 3.9498c-0.68797 1.1164-2.4527 1.8791-4.9883 1.8789-2.0264 0-4.0007-0.53263-4.9418-1.6517l-0.00552 2.4918c1.0219 1.2306 3.3246 1.5778 4.816 1.6212 2.3893 0.08953 4.3012-0.66142 5.1117-1.7541zm-9.9687 4.0684v4.6816c-1.44e-5 0.0033-1.44e-5 0.0066 0 0.0098 5.081e-4 0.0033 0.00141 0.0066 0.00195 0.0098v4e-3c0.016756 1.2823 2.2427 2.3178 4.9844 2.3184 2.7544 2.02e-4 4.9878-1.0438 4.9883-2.332-1.16e-4 -0.03789-0.0018-0.07543-0.0059-0.11328l2.2e-5 -4.5774c-1.2043 1.2975-2.9865 1.6561-5.1527 1.5851-1.8696-0.061306-3.9505-0.44816-4.816-1.586z"/>
</svg>